<?xml version="1.0" standalone="no"?>
<!DOCTYPE svg PUBLIC "-//W3C//DTD SVG 20010904//EN"
 "http://www.w3.org/TR/2001/REC-SVG-20010904/DTD/svg10.dtd">
<svg version="1.0" xmlns="http://www.w3.org/2000/svg"
 width="3000.000000pt" height="3000.000000pt" viewBox="0 0 3000.000000 3000.000000"
 preserveAspectRatio="xMidYMid meet">
<metadata>
Created by potrace 1.14, written by Peter Selinger 2001-2017
</metadata>
<g transform="translate(0.000000,3000.000000) scale(0.100000,-0.100000)"
fill="#000000" stroke="none">
<path d="M4659 29996 c-2 -3 -49 -7 -104 -11 -55 -3 -116 -7 -135 -10 -19 -2
-78 -9 -130 -15 -83 -10 -159 -22 -290 -45 -172 -31 -553 -130 -635 -165 -11
-5 -38 -14 -60 -21 -48 -14 -233 -84 -291 -110 -274 -121 -417 -194 -629 -320
-514 -308 -973 -714 -1353 -1200 -37 -47 -80 -105 -97 -130 -16 -24 -34 -49
-40 -56 -39 -46 -180 -268 -259 -408 -254 -449 -468 -1029 -546 -1480 -5 -33
-12 -71 -15 -85 -9 -43 -34 -212 -40 -275 -4 -33 -8 -71 -10 -85 -2 -14 -7
-70 -12 -125 -10 -126 -11 -20779 0 -20895 4 -47 10 -114 13 -150 3 -36 7 -72
9 -80 2 -8 7 -42 10 -75 6 -56 18 -135 30 -195 3 -14 7 -38 10 -55 8 -46 27
-138 39 -193 48 -211 170 -599 231 -737 8 -16 26 -59 40 -95 45 -109 181 -380
256 -511 101 -175 269 -427 366 -549 60 -76 168 -207 190 -233 456 -511 972
-909 1538 -1182 192 -93 224 -107 348 -156 56 -22 111 -43 122 -48 129 -56
620 -190 790 -217 28 -4 52 -8 55 -9 31 -7 89 -17 150 -25 198 -25 213 -27
345 -37 142 -10 20770 -11 20895 0 52 4 111 10 130 12 183 22 295 37 300 40 4
2 29 7 56 10 158 21 453 94 689 173 61 20 112 37 115 37 3 1 14 5 25 9 11 5
27 10 35 14 8 3 17 6 20 6 10 2 126 49 178 73 29 12 55 23 58 23 3 0 85 39
181 86 259 127 481 259 703 417 80 58 269 204 280 217 3 3 19 16 35 29 86 65
338 308 465 447 117 128 260 306 366 454 59 83 214 318 214 324 0 2 19 34 41
72 23 37 68 120 101 183 33 64 65 122 70 129 6 6 8 12 5 12 -3 0 11 33 30 73
87 177 207 505 273 742 43 158 47 174 88 380 27 135 33 173 46 280 2 17 7 53
11 80 12 93 14 110 22 215 10 135 11 20776 0 20895 -15 168 -18 200 -22 225
-2 14 -7 50 -10 80 -6 51 -18 129 -30 190 -3 14 -10 54 -16 90 -6 36 -15 79
-19 95 -5 17 -11 41 -14 55 -8 48 -55 226 -91 344 -193 636 -528 1246 -964
1756 -192 224 -438 462 -661 639 -36 28 -73 58 -83 66 -57 48 -289 208 -423
292 -68 43 -231 133 -355 196 -126 64 -184 90 -364 167 -231 99 -684 232 -930
274 -16 3 -59 10 -95 16 -36 6 -76 13 -90 15 -14 3 -50 7 -80 10 -30 4 -62 8
-70 10 -8 2 -53 7 -100 10 -47 4 -96 10 -110 13 -27 7 -20794 15 -20801 8z"/>
</g>
</svg>
