<?xml version="1.0" standalone="no"?>
<!DOCTYPE svg PUBLIC "-//W3C//DTD SVG 20010904//EN"
 "http://www.w3.org/TR/2001/REC-SVG-20010904/DTD/svg10.dtd">
<svg version="1.0" xmlns="http://www.w3.org/2000/svg"
 width="580.000000pt" height="580.000000pt" viewBox="0 0 580.000000 580.000000"
 preserveAspectRatio="xMidYMid meet">
<metadata>
Created by potrace 1.11, written by Peter Selinger 2001-2013
</metadata>
<g transform="translate(0.000000,580.000000) scale(0.100000,-0.100000)"
fill="#000000" stroke="none">
<path d="M0 2900 l0 -2900 2900 0 2900 0 0 2900 0 2900 -2900 0 -2900 0 0
-2900z m3170 2235 c504 -62 975 -291 1334 -650 336 -336 552 -752 637 -1230
21 -113 24 -162 24 -380 0 -281 -16 -402 -81 -629 -224 -780 -850 -1385 -1633
-1580 -212 -53 -280 -61 -556 -61 -276 0 -344 8 -556 61 -654 163 -1207 616
-1500 1229 -104 217 -163 416 -200 670 -28 197 -24 501 11 695 144 811 690
1466 1463 1754 158 59 383 110 567 129 98 10 378 5 490 -8z"/>
<path d="M2740 4534 c-346 -41 -635 -160 -891 -366 -449 -361 -680 -939 -605
-1509 36 -265 142 -536 293 -749 87 -122 271 -306 393 -393 180 -128 412 -227
651 -278 89 -20 134 -23 314 -23 180 0 225 3 314 23 161 34 285 77 426 147
170 84 294 173 435 314 137 137 228 262 309 425 74 149 114 261 148 424 24
113 27 147 27 326 0 178 -3 214 -27 326 -142 673 -649 1175 -1322 1309 -97 20
-381 34 -465 24z m370 -959 l0 -705 -111 0 -112 0 -89 -51 c-49 -28 -93 -48
-98 -43 -11 13 -520 897 -517 900 1 1 85 50 187 109 212 123 182 124 260 -11
l45 -79 3 293 2 292 215 0 215 0 0 -705z"/>
</g>
</svg>
