<?xml version="1.0" standalone="no"?>
<!DOCTYPE svg PUBLIC "-//W3C//DTD SVG 20010904//EN"
 "http://www.w3.org/TR/2001/REC-SVG-20010904/DTD/svg10.dtd">
<svg version="1.0" xmlns="http://www.w3.org/2000/svg"
 width="1048.000000pt" height="1048.000000pt" viewBox="0 0 1048.000000 1048.000000"
 preserveAspectRatio="xMidYMid meet">
<metadata>
Created by potrace 1.11, written by Peter Selinger 2001-2013
</metadata>
<g transform="translate(0.000000,1048.000000) scale(0.100000,-0.100000)"
fill="#000000" stroke="none">
<path d="M0 5240 l0 -5240 5240 0 5240 0 0 5240 0 5240 -5240 0 -5240 0 0
-5240z m6063 2970 c166 -33 356 -70 422 -84 66 -13 192 -38 280 -56 88 -17
212 -42 275 -55 63 -13 450 -90 860 -171 410 -81 747 -149 749 -150 5 -5 -16
-667 -39 -1209 -11 -253 -24 -597 -30 -765 -5 -168 -21 -588 -35 -935 -13
-346 -34 -866 -45 -1155 -12 -289 -24 -528 -28 -531 -4 -4 -52 -19 -107 -34
-201 -54 -313 -85 -440 -120 -71 -20 -159 -45 -195 -54 -118 -33 -323 -89
-455 -126 -71 -20 -159 -45 -195 -54 -83 -23 -297 -82 -420 -117 -52 -14 -142
-39 -200 -55 -100 -27 -202 -55 -410 -113 -52 -15 -151 -42 -220 -61 -69 -19
-183 -50 -255 -70 -201 -56 -250 -70 -390 -108 -71 -20 -173 -48 -225 -63
-227 -63 -307 -85 -330 -90 -26 -6 -22 -8 -1976 1162 l-491 294 -7 157 c-3 87
-13 363 -21 613 -8 250 -22 619 -30 820 -8 201 -19 509 -25 685 -6 176 -21
615 -35 975 -32 859 -41 1141 -35 1145 3 2 79 10 170 19 91 10 293 30 450 46
157 16 418 43 580 59 523 53 883 90 1183 121 160 16 429 44 597 61 168 17 400
41 515 53 116 13 221 24 233 25 13 0 159 -26 325 -59z"/>
<path d="M3140 7979 c-261 -29 -638 -67 -787 -80 -73 -6 -133 -15 -133 -20 0
-5 6 -9 14 -9 7 0 58 -13 112 -29 99 -29 224 -65 429 -122 61 -17 157 -44 215
-60 143 -41 255 -72 385 -108 182 -51 324 -91 430 -121 145 -42 294 -84 425
-120 63 -18 153 -44 200 -57 187 -56 149 -56 550 -3 653 85 784 103 995 132
127 17 233 34 238 37 4 4 -28 13 -70 20 -43 7 -105 19 -138 27 -33 7 -98 20
-145 28 -93 16 -248 47 -350 71 -36 8 -123 26 -195 40 -428 83 -697 136 -745
146 -30 7 -62 13 -71 14 -8 1 -35 6 -60 12 -24 6 -71 17 -104 23 -101 20 -158
32 -200 41 -22 4 -89 18 -150 30 -60 11 -117 22 -125 24 -80 18 -526 105 -534
104 -6 -1 -90 -10 -186 -20z"/>
<path d="M2073 7688 c4 -24 9 -158 12 -298 3 -140 15 -482 26 -760 10 -278 24
-662 29 -855 6 -192 21 -631 34 -975 14 -344 28 -747 31 -896 4 -149 10 -286
14 -304 7 -35 -15 -22 846 -525 77 -45 257 -151 400 -235 143 -84 323 -190
400 -235 77 -45 256 -150 399 -234 142 -84 260 -151 261 -149 2 2 -1 372 -6
823 -10 986 -29 3392 -29 3737 l0 247 -82 24 c-46 14 -231 68 -413 121 -181
52 -548 159 -815 236 -267 77 -595 172 -730 211 -135 39 -272 79 -304 90 -33
10 -64 19 -69 19 -5 0 -7 -19 -4 -42z"/>
<path d="M6155 7215 c-88 -12 -254 -34 -370 -49 -115 -15 -291 -38 -390 -51
-99 -13 -292 -38 -430 -56 -137 -18 -253 -35 -257 -38 -7 -6 4 -2149 20 -4002
l7 -816 430 118 c520 141 1126 308 1445 396 129 36 258 71 285 78 88 23 297
82 386 109 l86 26 -19 108 c-11 59 -24 109 -28 112 -5 3 -12 30 -16 60 -4 30
-11 58 -17 61 -5 4 -10 25 -11 48 0 22 -4 41 -8 41 -5 0 -8 14 -8 30 0 17 -4
30 -10 30 -5 0 -10 23 -10 50 0 28 -4 50 -10 50 -5 0 -10 25 -10 55 0 30 -4
55 -10 55 -5 0 -10 15 -10 34 0 19 -4 36 -10 38 -5 2 -17 46 -26 98 -9 52 -19
97 -23 100 -4 3 -16 53 -26 113 -10 59 -22 107 -27 107 -5 0 -7 13 -3 30 4 19
3 30 -4 30 -6 0 -11 11 -11 25 0 14 -4 25 -10 25 -5 0 -10 12 -11 28 -1 42
-24 144 -31 137 -4 -4 -6 19 -6 50 0 32 -4 60 -10 64 -5 3 -16 43 -22 88 -7
46 -16 80 -21 77 -5 -3 -9 9 -9 25 0 17 -4 31 -8 31 -5 0 -7 14 -4 30 2 17 0
30 -5 30 -6 0 -16 42 -24 93 l-14 92 -6 -55 c-4 -30 -7 -83 -8 -116 -1 -63 -8
-74 -48 -74 -14 0 -15 19 -10 167 5 150 8 169 25 182 18 15 19 20 9 64 -6 26
-15 47 -19 47 -5 0 -8 16 -8 36 0 19 -3 33 -7 31 -5 -3 -9 18 -10 46 0 28 -6
53 -12 55 -6 2 -11 19 -11 38 0 20 -4 33 -8 30 -4 -2 -9 23 -9 56 -1 34 -6 64
-12 67 -5 3 -15 43 -22 89 -7 45 -16 82 -21 82 -4 0 -8 14 -8 31 0 16 -4 28
-9 25 -4 -3 -14 35 -20 84 -7 50 -16 90 -20 90 -5 0 -16 56 -27 125 -10 69
-22 125 -26 125 -4 0 -8 11 -8 25 0 14 -4 25 -9 25 -4 0 -14 41 -20 90 -7 50
-17 90 -22 90 -5 0 -9 13 -9 29 0 16 -5 31 -10 33 -6 2 -13 43 -17 91 -3 48
-10 87 -14 87 -5 0 -9 16 -9 35 0 19 -4 35 -10 35 -5 0 -10 14 -10 31 0 17 -4
28 -10 24 -10 -6 -15 42 -11 98 1 15 -3 27 -8 27 -6 0 -11 11 -11 25 0 14 -4
25 -10 25 -5 0 -10 16 -10 35 0 19 -4 35 -10 35 -6 0 -10 27 -10 60 0 36 -4
60 -11 60 -7 0 -8 11 -4 31 8 34 -5 49 -40 48 -11 -1 -92 -12 -180 -24z m135
-2144 c0 -25 -15 -41 -39 -41 -14 0 -31 -4 -37 -8 -17 -11 -34 -48 -34 -72 0
-19 4 -21 33 -15 51 11 52 11 52 -10 0 -15 -10 -21 -42 -28 l-43 -8 0 -143 c0
-135 -1 -144 -20 -149 -19 -5 -20 0 -20 140 0 125 -2 144 -15 139 -10 -3 -15
1 -15 13 0 10 7 21 15 25 8 3 15 18 15 33 0 43 38 110 68 122 35 12 82 14 82
2z m421 -41 c33 -18 49 -64 49 -143 0 -82 -25 -145 -71 -179 -33 -25 -99 -34
-128 -18 -67 35 -69 230 -3 304 35 39 112 58 153 36z m-223 -67 c-2 -22 -10
-29 -37 -34 -18 -4 -45 -16 -60 -27 -25 -18 -26 -24 -28 -123 -4 -132 -8 -149
-35 -149 -21 0 -21 1 -15 162 4 116 10 163 19 169 21 14 28 10 28 -13 l0 -21
23 20 c32 29 58 42 85 43 20 0 23 -4 20 -27z"/>
<path d="M6595 4956 c-28 -28 -39 -79 -32 -144 13 -118 121 -93 142 34 17 108
-47 173 -110 110z"/>
<path d="M6908 5107 c-17 -6 -28 -18 -28 -29 0 -17 3 -17 33 5 17 14 41 27 52
30 16 4 15 5 -5 5 -14 0 -37 -5 -52 -11z"/>
<path d="M6992 4950 c-1 -30 -5 -80 -8 -110 -5 -42 -4 -52 5 -44 8 7 11 43 8
110 -1 54 -4 74 -5 44z"/>
</g>
</svg>
