<?xml version="1.0" standalone="no"?>
<!DOCTYPE svg PUBLIC "-//W3C//DTD SVG 20010904//EN"
 "http://www.w3.org/TR/2001/REC-SVG-20010904/DTD/svg10.dtd">
<svg version="1.0" xmlns="http://www.w3.org/2000/svg"
 width="580.000000pt" height="580.000000pt" viewBox="0 0 580.000000 580.000000"
 preserveAspectRatio="xMidYMid meet">
<metadata>
Created by potrace 1.11, written by Peter Selinger 2001-2013
</metadata>
<g transform="translate(0.000000,580.000000) scale(0.100000,-0.100000)"
fill="#000000" stroke="none">
<path d="M0 2900 l0 -2900 2900 0 2900 0 0 2900 0 2900 -2900 0 -2900 0 0
-2900z m1749 1378 c6 -29 72 -377 146 -773 75 -396 139 -728 143 -737 4 -11
82 254 211 725 113 408 211 763 219 790 l14 47 420 -2 421 -3 213 -770 c117
-423 217 -778 221 -788 6 -12 60 255 158 772 l150 791 418 0 418 0 -6 -32 c-4
-18 -145 -661 -314 -1428 l-307 -1395 -436 -3 -435 -2 -50 177 c-27 98 -139
500 -249 895 -109 394 -201 714 -203 712 -2 -2 -115 -403 -250 -891 l-246
-888 -436 -3 -436 -2 -312 1407 c-172 775 -315 1418 -318 1431 l-5 22 420 0
421 0 10 -52z"/>
</g>
</svg>
